#!OML:ASF F:\VICON\USERDATA\INSTALL\rory3\rory3.ASF
:FULLY-SPECIFIED
:DEGREES
3051
root -0.940291 15.2809 0.526209 0.519167 -10.8788 2.32816
lowerback 10.6279 -5.34177 -9.84448
upperback -1.3199 -8.18504 3.74636
thorax -5.42372 -3.68897 10.6986
lowerneck -20.2359 6.65516 -10.5444
upperneck 22.97 12.8969 -0.87813
head 10.1205 4.83695 3.17444
rclavicle 4.07509e-015 4.45278e-014
rhumerus -17.1674 31.4166 -87.4976
rradius 127.076
rwrist 4.28958
rhand 7.87579 16.0433
rfingers 7.12502
rthumb 33.1089 -10.9339
lclavicle 4.07509e-015 4.45278e-014
lhumerus 31.0007 -4.77047 68.8464
lradius 61.8029
lwrist -14.0207
lhand -15.9463 9.02263
lfingers 7.12502
lthumb 10.252 38.7528
rfemur -53.1739 4.19897 5.20777
rtibia 62.295
rfoot 0.293201 4.17463
rtoes 6.5509
lfemur 22.4674 -2.53816 -12.5867
ltibia 32.9564
lfoot -17.8533 -13.2081
ltoes -36.7234
3052
root -1.03394 15.281 0.624098 0.969857 -10.9293 1.87516
lowerback 9.61162 -6.30715 -10.2968
upperback -0.791595 -9.40207 4.13097
thorax -3.84624 -4.43687 11.2408
lowerneck -21.0401 7.76156 -10.1528
upperneck 22.6404 14.4755 -1.21691
head 10.1202 5.55638 3.22169
rclavicle -3.08116e-015 -2.22639e-014
rhumerus -18.368 30.0555 -87.4403
rradius 128.687
rwrist 3.49064
rhand 8.51175 16.7944
rfingers 7.12502
rthumb 33.7135 -10.0525
lclavicle -3.08116e-015 -2.22639e-014
lhumerus 38.638 -3.98776 65.0938
lradius 45.8925
lwrist -16.9669
lhand -15.2304 10.3686
lfingers 7.12502
lthumb 10.9425 40.0635
rfemur -53.3497 3.91047 6.39974
rtibia 62.8479
rfoot -1.10913 3.75472
rtoes 7.16035
lfemur 22.2031 -3.17873 -12.3369
ltibia 33.1873
lfoot -17.6511 -12.3742
ltoes -36.6135
3053
root -1.11988 15.2825 0.710269 1.13268 -10.9591 1.82096
lowerback 9.0125 -7.07922 -11.249
upperback -0.135118 -10.4536 4.3812
thorax -2.31817 -5.11026 11.9001
lowerneck -22.1361 8.57721 -9.98938
upperneck 22.3856 15.6711 -1.21326
head 10.1754 6.11214 3.3956
rclavicle 8.18993e-014 1.11319e-014
rhumerus -18.6087 28.4129 -86.8632
rradius 129.694
rwrist 3.16256
rhand 8.29838 17.7444
rfingers 7.12502
rthumb 33.5107 -9.14668
lclavicle 8.18993e-014 1.11319e-014
lhumerus 45.7643 -5.34734 58.0158
lradius 32.2663
lwrist -14.5094
lhand -12.3146 15.3242
lfingers 7.12502
lthumb 13.7538 44.8496
rfemur -53.3645 3.54364 7.14848
rtibia 63.3389
rfoot -2.15824 3.50939
rtoes 7.37168
lfemur 22.1447 -3.72059 -12.4952
ltibia 33.2873
lfoot -17.3482 -11.699
ltoes -35.3348
3054
root -1.19715 15.2851 0.793689 1.00329 -11.1499 2.08035
lowerback 9.19606 -7.75844 -12.3381
upperback 0.289852 -11.4841 4.3887
thorax -1.45967 -5.71834 12.4873
lowerneck -23.2225 9.29398 -9.98748
upperneck 22.289 16.674 -0.766624
head 10.2313 6.61541 3.72585
rclavicle 1.72943e-013 -3.81667e-014
rhumerus -18.9612 27.0444 -86.5121
rradius 130.359
rwrist 3.60455
rhand 6.82654 18.514
rfingers 7.12502
rthumb 32.1106 -8.66969
lclavicle 1.72943e-013 -3.81667e-014
lhumerus 50.457 -10.1847 44.4621
lradius 24.8976
lwrist -6.09152
lhand -9.19991 18.6088
lfingers 7.12502
lthumb 16.754 47.9059
rfemur -53.2193 3.21939 7.53248
rtibia 63.8258
rfoot -2.81056 3.45131
rtoes 7.24996
lfemur 22.4366 -3.9976 -12.9829
ltibia 33.1861
lfoot -17.1345 -11.0213
ltoes -33.4451
3055
root -1.26654 15.29 0.875702 0.886596 -11.5775 2.27183
lowerback 10.1248 -8.34144 -13.2269
upperback 0.232909 -12.4771 4.46811
thorax -1.52948 -6.20964 13.2259
lowerneck -24.0372 10.0085 -10.0359
upperneck 22.3151 17.6939 -0.424548
head 10.284 7.10436 4.02203
rclavicle -6.4605e-015 3.10104e-014
rhumerus -19.7818 26.1677 -85.9343
rradius 131.11
rwrist 3.58195
rhand 5.24997 18.7925
rfingers 7.12502
rthumb 30.6084 -8.68284
lclavicle -6.4605e-015 3.10104e-014
lhumerus 53.4064 -16.2721 27.3036
lradius 23.4712
lwrist -1.39836
lhand -7.46986 17.0856
lfingers 7.12502
lthumb 18.4189 46.2336
rfemur -53.1566 3.02306 7.95886
rtibia 64.2755
rfoot -3.08422 3.46222
rtoes 5.69021
lfemur 22.8533 -3.85237 -13.3081
ltibia 32.829
lfoot -17.2631 -9.89081
ltoes -32.4567
3056
root -1.32309 15.2981 0.964343 0.990834 -12.4182 2.27735
lowerback 10.7873 -8.76043 -13.518
upperback 0.0881919 -13.1623 4.5264
thorax -1.75548 -6.52633 13.5859
lowerneck -24.5207 10.6515 -9.88569
upperneck 22.1384 18.6076 -0.562102
head 10.2828 7.51551 4.0908
rclavicle 3.65764e-014 2.42517e-014
rhumerus -20.4704 25.2742 -85.2056
rradius 131.914
rwrist 3.08166
rhand 4.4882 18.9944
rfingers 7.12502
rthumb 29.8817 -8.61418
lclavicle 3.65764e-014 2.42517e-014
lhumerus 52.424 -13.0123 30.4366
lradius 21.6028
lwrist -18.835
lhand -3.01526 13.5298
lfingers 7.12502
lthumb 22.6993 42.2146
rfemur -53.3757 3.05417 8.52507
rtibia 64.6662
rfoot -3.20008 3.6405
rtoes 4.33294
lfemur 23.2502 -3.16697 -13.4305
ltibia 32.2415
lfoot -17.5908 -8.25871
ltoes -32.3035
